<svg version="1.1" xmlns="http://www.w3.org/2000/svg" style="display: block;" viewBox="0 0 2014 2048" width="821" height="835" preserveAspectRatio="none">
<path transform="translate(0,0)" fill="rgb(255,255,255)" d="M 508.431 2048 C 496.496 2043.3 454.628 2044.96 439.019 2044.16 C 360.275 2040.09 289.347 2026.63 219.859 1987.83 C 123.555 1933.09 53.1098 1842.14 24.1822 1735.21 C 14.7939 1701.33 9.24218 1659.45 7.40738 1624.43 C 6.87071 1614.19 4.6388 1602.82 4.3256 1592.51 C 3.59515 1568.47 3.79669 1544.13 3.79926 1520.08 L 3.83059 1393.93 L 3.87455 989.75 L 3.85376 659.968 C 3.86769 605.993 3.54464 551.626 4.51597 497.662 C 4.72951 485.799 6.94087 473.126 7.73267 461.154 C 8.64724 447.325 8.34279 433.029 9.87755 419.251 C 16.9866 351.456 30.4738 287.395 64.0545 227.25 C 107.618 149.224 171.906 89.7865 253.58 53.4 C 279.328 41.9292 302.717 35.5325 329.716 27.8783 C 425.982 0.587436 526.401 5.07524 625.828 4.745 L 983.447 5.83168 L 1360.58 7.08492 C 1412.94 7.23607 1464.83 4.95487 1517.18 7.91584 C 1540.54 9.23655 1565.66 7.54384 1588.82 10.6545 C 1657.58 19.8872 1731.3 35.3999 1792.04 70.34 C 1899.61 133.191 1973.52 240.777 1993.58 363.739 C 2002.79 419.143 2001.94 463.902 2003.44 519.022 L 2007.74 733.583 C 2008.45 761.013 2008.14 788.732 2009.56 816.134 C 2010.28 830.003 2010.01 852.021 2014 865.115 L 2014 1540.46 C 2005.91 1568.77 2007.22 1615.77 2001.86 1646.76 C 1996.1 1679.97 1994.47 1708.65 1985.06 1741.81 C 1954.4 1846.55 1884.43 1935.38 1789.79 1989.73 C 1724.64 2026.28 1654.66 2038.85 1580.92 2044.04 C 1558.46 2045.62 1530.94 2042.29 1509.47 2048 L 508.431 2048 z"/>
<path transform="translate(0,0)" fill="rgb(0,0,0)" d="M 616.661 173.408 C 633.892 171.783 655.734 172.753 673.277 172.764 L 771.665 172.819 L 1080.84 172.82 L 1303.59 172.793 L 1367.45 172.806 C 1386.99 172.822 1404.76 172.323 1424.2 175.306 C 1458.39 180.551 1494.05 197.663 1520.23 220.191 C 1552.15 247.246 1574.63 283.755 1584.43 324.436 C 1591.64 354.625 1590.21 385.008 1590.21 415.869 L 1590.19 498.45 L 1590.15 830.275 L 1590.07 933.058 C 1590.04 949.932 1589.35 976.1 1590.61 992.493 L 1590.72 993.797 C 1579.96 989.119 1558.74 976.358 1547.86 970.182 L 1467.52 924.436 L 1230.15 790.093 C 1230.68 742.714 1230.84 695.331 1230.61 647.948 L 1230.49 415.879 C 1264.2 415.74 1297.91 415.781 1331.62 416.002 L 1331.56 728.975 L 1488.39 817.803 C 1489.93 792.093 1488.36 761.075 1488.4 734.809 L 1488.5 508.084 L 1488.58 416.037 C 1488.59 399.878 1489.35 373.116 1486.76 358.321 C 1483.35 338.177 1473.83 319.568 1459.5 305.015 C 1438.04 283.11 1412.76 274.036 1382.6 274.06 C 1326.01 274.105 1269.39 274.115 1212.8 274.109 L 859.986 274.107 L 704.81 274.083 C 683.381 274.066 639.013 272.865 619.989 275.727 C 598.486 278.934 578.575 288.941 563.172 304.284 C 530.474 336.797 533.707 370.932 533.711 413.23 L 533.755 499.268 L 533.56 825.319 C 550.097 836.156 570.593 846.899 587.989 856.962 L 702.175 922.713 L 702.319 632.543 L 702.245 555.33 C 702.234 536.908 701.449 513.083 704.787 495.572 C 708.416 476.234 717.877 458.469 731.899 444.666 C 768.397 408.084 813.004 415.69 860.443 415.852 L 947.269 415.79 C 987.147 415.721 1015.45 414.572 1045.75 444.828 C 1077.2 476.228 1074.47 513.085 1074.53 553.435 L 1074.56 620.212 L 1074.57 864.546 L 1590.38 1156.22 C 1589.6 1203.33 1590.19 1252.03 1590.19 1299.26 L 1590.15 1556.88 L 1590.22 1658.57 C 1590.25 1725.62 1591.47 1763.93 1548.9 1821.35 C 1542.84 1828.99 1536.35 1836.29 1529.46 1843.19 C 1500.78 1871.16 1464.33 1889.82 1424.88 1896.76 C 1398 1901.53 1353.32 1900.12 1324.77 1900.12 L 1177.04 1900.11 L 644.902 1900.06 C 634.294 1900 624.168 1899.87 613.56 1898.95 C 526.796 1891.37 451.855 1823.35 435.631 1737.89 C 430.168 1709.11 431.96 1673.54 431.979 1643.89 L 432.012 1516.73 C 431.996 1364.01 430.524 1208.6 432.251 1056.19 C 465.503 1074.84 500.94 1095.21 533.832 1114.62 L 533.778 1528 L 533.774 1646.23 C 533.78 1664.19 532.861 1697.19 535.326 1713.5 C 538.306 1733.01 547.049 1751.18 560.432 1765.68 C 597.583 1805.59 643.039 1798.25 692.327 1798.21 L 797.386 1798.2 L 1128.52 1798.2 L 1308.51 1798.21 C 1334.54 1798.24 1360.62 1798.37 1386.62 1798.15 C 1414.59 1797.92 1436.24 1789.81 1456.87 1770.83 C 1491.65 1738.84 1488.38 1703.78 1488.37 1660.91 L 1488.33 1576.33 L 1488.37 1347.64 C 1488.37 1304.81 1487.63 1259.98 1488.67 1217.4 L 1276.4 1097.03 C 1210.5 1059.49 1140.86 1018.68 1074.32 982.796 L 1074.55 1300.74 L 1201.59 1300.79 C 1223.21 1300.75 1244.93 1300.59 1266.56 1300.95 C 1285.94 1301.28 1303.27 1309.1 1316.32 1323.7 C 1324.06 1332.26 1329.23 1342.81 1331.27 1354.17 C 1332.21 1359.17 1332.95 1365.75 1332.89 1370.83 C 1332.19 1433.39 1333.63 1495.69 1332.24 1558.27 C 1331.62 1586.04 1318.9 1608.08 1298.65 1626.56 C 1266.73 1655.69 1224.4 1650.02 1183.76 1650.04 L 1061.35 1650.08 L 887.462 1650.08 C 857.058 1650.07 825.589 1650.52 795.213 1649.49 C 767.367 1648.55 743.581 1636.63 725.392 1615.14 C 713.681 1601.21 706.18 1584.23 703.768 1566.2 C 701.104 1546.16 702.319 1504.15 702.322 1482.36 L 702.328 1331.21 L 702.26 1143.63 C 702.238 1116.66 700.802 1068.89 702.956 1042.86 C 686.123 1032.32 665.761 1021.43 648.292 1011.24 L 527.778 941.494 C 497.057 923.962 461.939 904.52 432.041 886.134 L 431.977 519.41 L 431.96 417.907 C 431.964 390.613 430.635 360.267 435.64 333.784 C 442.19 300.453 457.169 269.355 479.149 243.455 C 513.88 202.79 563.347 177.593 616.661 173.408 z"/>
<path transform="translate(0,0)" fill="rgb(255,255,255)" d="M 817.031 517.438 C 858.347 516.599 900.054 517.879 941.408 517.183 C 950.218 517.035 963.789 516.745 971.197 521.761 C 974.499 534.078 973.236 585.966 973.222 601.111 L 973.226 747.09 L 973.237 1402.96 L 1230.87 1403.06 C 1230.68 1422.77 1233.77 1535.02 1228.34 1542.95 C 1226.14 1546.16 1222.93 1547.53 1219.25 1548.2 C 1089.11 1551.07 957.144 1546.34 826.805 1548.28 C 814.84 1548.46 804.618 1548.35 804.292 1533.6 C 804.126 1526.08 804.003 1518.35 803.992 1510.73 L 803.986 1465.41 L 804.004 1305.35 L 803.942 729.239 L 804 590.996 L 804.018 551.534 C 803.909 537.294 799.174 520.446 817.031 517.438 z"/>
</svg>